<svg version="1.1" viewBox="0 0 9 9" xmlns="http://www.w3.org/2000/svg">
    <circle cx="4.5" cy="4.5" r="4.5" fill="white" />
    <path d="m2.5 6 0.5 0.5-0.5 0.5-0.5-0.5zm4 0 0.5 0.5-0.5 0.5-0.5-0.5zm0-4 0.5 0.5-0.5 0.5-0.5-0.5zm-4 0 0.5 0.5-0.5 0.5-0.5-0.5zm2.5 2.5a0.5 0.5 0 0 1-0.5 0.5 0.5 0.5 0 0 1-0.5-0.5 0.5 0.5 0 0 1 0.5-0.5 0.5 0.5 0 0 1 0.5 0.5zm-0.5-2a2 2 0 0 0-2 2 2 2 0 0 0 2 2 2 2 0 0 0 2-2 2 2 0 0 0-2-2zm0 0.5a1.5 1.5 0 0 1 1.5 1.5 1.5 1.5 0 0 1-1.5 1.5 1.5 1.5 0 0 1-1.5-1.5 1.5 1.5 0 0 1 1.5-1.5zm-0.35-3v2h0.699v-2zm0 7v2h0.699v-2zm-4.15-2.85v0.699h2v-0.699zm7 0v0.699h2v-0.699z" fill="black"/>
</svg>
